grf
version=1
nRows=8
nColumns=28
inDegrees=no
endheader
time	ground_force_1_vx	ground_force_1_vy	ground_force_1_vz	ground_force_1_px	ground_force_1_py	ground_force_1_pz	ground_moment_1_mx	ground_moment_1_my	ground_moment_1_mz	ground_force_2_vx	ground_force_2_vy	ground_force_2_vz	ground_force_2_px	ground_force_2_py	ground_force_2_pz	ground_moment_2_mx	ground_moment_2_my	ground_moment_2_mz	ground_force_3_vx	ground_force_3_vy	ground_force_3_vz	ground_force_3_px	ground_force_3_py	ground_force_3_pz	ground_moment_3_mx	ground_moment_3_my	ground_moment_3_mz
      0.60000000	      0.56682028	     -0.18428592	      1.33951089	    532.53465740	  -1646.16581202	      2.62151098	     -0.03029390	     -0.10954314	    -60.02374298	     18.96591033	   -236.61519925	  -1815.99744727	    373.69919922	  -1701.90429737	      0.18198286	      0.19116060	      2.47226820	  -2962.45327720	      1.73816565	     -0.57606965	      4.56159457	    454.00242825	   -261.29177192	      0.33545460	     -0.15022516	      1.10354305	    537.35941322
      0.61000000	      0.52660865	     -0.21994057	      1.57796561	    478.70167941	  -1566.32206572	      2.50296583	      0.02207684	      0.07983015	     43.74262205	     -7.27128036	   -264.90378939	  -1585.87221593	    375.77792248	  -1704.88247310	      0.17963160	      0.14887098	      1.92533916	  -2307.08274072	      1.50297522	     -0.81570523	      4.08940777	    457.64150537	   -290.33307236	      0.39611234	     -0.11094814	      0.81501691	    396.86445474
      0.62000000	      0.40448009	      0.06546687	      1.02505879	    431.83594695	  -1695.84438337	      2.76299672	      0.01977517	      0.07150729	     39.18214214	    -26.70799622	   -263.68184188	  -1325.68253086	    378.11535578	  -1708.98168075	      0.17636151	      0.07819074	      1.01123597	  -1211.73717980	      1.46217939	     -0.53811859	      4.24293590	    457.83606329	   -247.58897936	      0.30838573	     -0.12584973	      0.92448290	    450.16783860
      0.63000000	      0.28385052	     -0.21184784	      1.02656668	    398.91331064	  -1617.95231247	      2.63745995	      0.02093886	      0.07571520	     41.48785425	    -39.14015138	   -251.42426603	  -1033.69562085	    379.81821872	  -1712.39518996	      0.17362270	     -0.00313504	     -0.04054528	     48.58433706	      1.42287900	     -0.53760136	      4.47637883	    464.32749699	   -313.28710731	      0.44512082	     -0.09428252	      0.69259253	    337.25110658
      0.64000000	      0.52577742	      0.03484031	      1.02705776	    385.91298187	  -1472.19627083	      2.37801688	      0.05236747	      0.18936145	    103.75987680	    -43.51750767	   -218.67544065	   -725.40622362	    380.48525913	  -1715.71921224	      0.17089173	     -0.07310409	     -0.94545060	   1132.90832022	      1.58165594	     -0.65586673	      4.23928902	    417.71378482	   -272.13290999	      0.34757348	     -0.10612913	      0.77961680	    379.62672051
      0.65000000	      0.56631720	      0.16132974	      1.81995674	    350.68945527	  -1321.92591902	      2.12155123	      0.06480997	      0.23435368	    128.41319975	    -36.89688884	   -161.65550106	   -441.94240879	    380.49505214	  -1722.31063775	      0.16539159	     -0.10857490	     -1.40419242	   1682.60645966	      1.77898101	     -0.65392800	      4.63115222	    447.97583594	   -280.92013927	      0.37407940	     -0.12086497	      0.88786526	    432.33723747
      0.66000000	      0.24304139	      0.12272607	      1.66451103	    269.90795621	  -1255.06960377	      2.04030898	      0.08840890	      0.31968774	    175.17166826	    -24.59598465	    -92.60860561	   -248.97504238	    379.74759606	  -1736.97041696	      0.15310928	     -0.12075587	     -1.56172816	   1871.37734886	      1.50346350	     -0.77393574	      4.71196556	    398.55399795	   -312.10168050	      0.42429862	     -0.09146486	      0.67189415	    327.17223508
      0.67000000	      0.32350138	      0.32610849	      1.82137404	    324.98696579	  -1255.21400735	      2.01277422	      0.11339389	      0.41003378	    224.67643129	     -8.92438547	    -36.72836540	   -117.20123121	    375.53445613	  -1757.89249370	      0.13537723	     -0.06906986	     -0.89327626	   1070.38920390	      1.77752603	     -0.29886309	      3.84201585	    447.57133519	   -236.88608638	      0.28353621	     -0.16197949	      1.18988949	    579.40496360
